PathFileType  4	(X/Y/Z)
DataRate	CameraRate	NumFrames	NumMarkers	Units	OrigDataRate	OrigDataStartFrame	OrigNumFrames
  100.0 	  100.0 	    10 	     42 	mm 	  100.0 	      1 	    237
Frame#	Time	R.Shoulder			R.Clavicle			R.Bicep			R.Elbow			R.Forearm			R.Wrist			L.Shoulder			L.Clavicle			L.Scapula			L.Bicep			L.Elbow			L.Forearm			L.Wrist			R.ASIS			R.Iliac			S2			L.Iliac			L.ASIS			R.TH1			R.TH2			R.TH3			R.Knee			R.SH1			R.SH2			R.SH3			R.SH4			R.Ankle			R.Heel			R.MT5			L.TH1			L.TH2			L.TH3			L.TH4			L.Knee			L.SH1			L.SH2			L.SH3			L.Ankle			L.Heel			L.MT5			R_HJC			L_HJC			
		X1	Y1	Z1	X2	Y2	Z2	X3	Y3	Z3	X4	Y4	Z4	X5	Y5	Z5	X6	Y6	Z6	X7	Y7	Z7	X8	Y8	Z8	X9	Y9	Z9	X10	Y10	Z10	X11	Y11	Z11	X12	Y12	Z12	X13	Y13	Z13	X14	Y14	Z14	X15	Y15	Z15	X16	Y16	Z16	X17	Y17	Z17	X18	Y18	Z18	X19	Y19	Z19	X20	Y20	Z20	X21	Y21	Z21	X22	Y22	Z22	X23	Y23	Z23	X24	Y24	Z24	X25	Y25	Z25	X26	Y26	Z26	X27	Y27	Z27	X28	Y28	Z28	X29	Y29	Z29	X30	Y30	Z30	X31	Y31	Z31	X32	Y32	Z32	X33	Y33	Z33	X34	Y34	Z34	X35	Y35	Z35	X36	Y36	Z36	X37	Y37	Z37	X38	Y38	Z38	X39	Y39	Z39	X40	Y40	Z40	X41	Y41	Z41	X42	Y42	Z42	

1	0.00000	-1499.117	1395.726	-27.049	-1426.529	1375.987	-185.685	-1497.961	1221.697	-5.647	-1592.022	1099.160	37.025	-1526.308	963.437	51.376	-1553.725	863.812	95.087	-1534.680	1401.761	-412.737	-1422.582	1377.250	-252.671	-1639.029	1289.559	-269.490	-1452.454	1252.766	-416.918	-1463.625	1111.997	-487.715	-1336.922	1052.593	-473.389	-1274.900	956.330	-511.610	-1429.989	930.815	-79.097	-1529.467	1009.762	-49.614	-1618.501	946.988	-205.678	-1530.173	1010.550	-372.592	-1430.606	930.224	-355.002	-1350.742	725.851	-103.063	-1327.708	642.854	-114.755	-1431.985	599.603	-20.530	-1383.227	470.587	-60.742	-1263.949	380.465	-87.391	-1236.300	312.099	-94.384	-1360.717	334.239	-46.476	-1334.225	265.780	-53.743	-1203.584	108.477	-90.936	-1233.763	43.138	-161.237	-1069.595	108.779	-52.704	-1452.440	714.250	-365.573	-1469.249	634.381	-341.436	-1597.576	732.250	-405.879	-1612.161	648.540	-380.148	-1631.584	491.608	-347.848	-1635.890	357.259	-324.594	-1660.836	286.290	-317.177	-1769.026	319.527	-332.615	-1794.173	108.933	-287.761	-1859.213	66.714	-229.923	-1678.942	33.484	-316.161	-1503.399	837.415	-109.795	-1508.709	838.088	-319.535
2	0.01000	-1487.545	1393.778	-25.708	-1414.534	1374.757	-184.145	-1486.533	1219.778	-4.659	-1580.981	1097.512	37.605	-1516.800	961.085	52.489	-1545.776	861.799	95.839	-1522.455	1400.655	-411.348	-1410.515	1376.184	-250.988	-1626.976	1288.273	-268.840	-1440.180	1251.733	-415.105	-1450.269	1111.193	-486.011	-1323.513	1053.099	-470.254	-1259.958	957.910	-508.293	-1417.876	930.051	-78.117	-1518.001	1008.248	-48.983	-1606.172	945.373	-205.478	-1517.320	1009.227	-371.973	-1417.867	928.992	-354.314	-1337.206	727.398	-103.428	-1313.105	644.831	-115.308	-1416.120	599.884	-20.399	-1366.545	470.753	-61.205	-1249.465	377.926	-88.776	-1223.405	308.981	-96.064	-1347.341	334.012	-47.485	-1322.548	264.977	-55.311	-1195.581	105.886	-92.899	-1227.364	41.292	-163.211	-1061.460	103.640	-55.299	-1440.722	712.821	-365.140	-1457.983	632.990	-341.054	-1585.797	731.608	-405.470	-1600.959	648.133	-380.021	-1621.866	491.372	-347.893	-1628.619	356.980	-324.792	-1654.733	286.441	-317.477	-1762.305	321.764	-333.454	-1792.223	111.765	-288.727	-1857.966	70.824	-230.733	-1678.407	33.531	-316.390	-1491.036	836.115	-109.145	-1495.582	836.791	-318.903
3	0.02000	-1476.011	1391.923	-24.328	-1402.537	1373.583	-182.544	-1475.106	1217.936	-3.635	-1569.936	1095.906	38.167	-1507.210	958.836	53.586	-1537.690	859.852	96.567	-1510.132	1399.604	-409.928	-1398.415	1375.169	-249.273	-1614.868	1287.028	-268.205	-1427.868	1250.721	-413.271	-1437.003	1110.416	-484.290	-1310.214	1053.539	-467.123	-1245.186	959.398	-504.979	-1405.663	929.361	-77.135	-1506.479	1006.810	-48.372	-1593.740	943.806	-205.286	-1504.374	1007.938	-371.370	-1405.021	927.768	-353.611	-1323.538	728.985	-103.729	-1298.384	646.839	-115.828	-1400.168	600.221	-20.265	-1349.829	470.971	-61.640	-1235.084	375.360	-90.137	-1210.660	305.822	-97.710	-1334.016	333.829	-48.437	-1310.995	264.209	-56.796	-1187.906	103.350	-94.813	-1221.416	39.628	-165.073	-1053.739	98.274	-57.886	-1428.880	711.422	-364.674	-1446.560	631.624	-340.640	-1573.879	730.935	-405.068	-1589.585	647.677	-379.863	-1611.917	491.098	-347.938	-1621.161	356.675	-324.995	-1648.506	286.599	-317.780	-1755.403	324.049	-334.251	-1790.141	114.685	-289.694	-1856.613	75.089	-231.529	-1677.844	33.567	-316.642	-1478.587	834.884	-108.478	-1482.351	835.529	-318.251
4	0.03000	-1464.546	1390.238	-22.880	-1390.532	1372.516	-180.834	-1463.685	1216.243	-2.537	-1558.888	1094.385	38.701	-1497.468	956.773	54.654	-1529.347	858.034	97.253	-1497.650	1398.654	-408.448	-1386.255	1374.254	-247.496	-1602.666	1285.857	-267.592	-1415.494	1249.752	-411.403	-1423.904	1109.683	-482.542	-1297.116	1053.855	-463.997	-1230.724	960.703	-501.666	-1393.256	928.816	-76.158	-1494.815	1005.510	-47.792	-1581.116	942.336	-205.106	-1491.254	1006.715	-370.790	-1391.978	926.567	-352.890	-1309.637	730.621	-103.913	-1283.472	648.882	-116.269	-1384.102	600.657	-20.127	-1333.105	471.272	-62.005	-1220.909	372.776	-91.437	-1198.188	302.633	-99.271	-1320.803	333.731	-49.265	-1299.661	263.519	-58.111	-1180.767	100.949	-96.605	-1216.211	38.345	-166.725	-1046.697	92.551	-60.432	-1416.810	710.079	-364.155	-1434.846	630.308	-340.178	-1561.709	730.206	-404.669	-1577.896	647.138	-379.643	-1601.538	490.758	-347.982	-1613.358	356.325	-325.212	-1642.042	286.774	-318.097	-1748.167	326.429	-334.965	-1787.804	117.769	-290.656	-1855.048	79.663	-232.293	-1677.232	33.589	-316.937	-1465.963	833.781	-107.784	-1468.929	834.334	-317.570
5	0.04000	-1453.159	1388.783	-21.341	-1378.516	1371.603	-178.984	-1452.279	1214.755	-1.331	-1547.851	1092.991	39.210	-1487.519	954.955	55.688	-1520.650	856.392	97.889	-1484.994	1397.839	-406.892	-1374.024	1373.482	-245.633	-1590.351	1284.786	-266.989	-1403.049	1248.842	-409.498	-1411.018	1109.005	-480.761	-1284.283	1054.009	-460.884	-1216.671	961.745	-498.349	-1380.581	928.484	-75.202	-1482.893	1004.394	-47.243	-1568.236	941.013	-204.935	-1477.903	1005.584	-370.237	-1378.676	925.404	-352.157	-1295.454	732.280	-103.934	-1268.369	650.921	-116.577	-1367.989	601.215	-19.976	-1316.482	471.668	-62.241	-1207.032	370.238	-92.625	-1186.064	299.499	-100.679	-1307.764	333.754	-49.890	-1288.588	262.961	-59.159	-1174.203	98.780	-98.182	-1211.820	37.637	-168.090	-1040.416	86.466	-62.866	-1404.430	708.818	-363.580	-1422.740	629.065	-339.667	-1549.211	729.414	-404.251	-1565.790	646.500	-379.337	-1590.581	490.345	-348.029	-1605.096	355.934	-325.465	-1635.239	286.981	-318.444	-1740.479	328.941	-335.559	-1785.103	121.079	-291.604	-1853.166	84.691	-233.001	-1676.556	33.608	-317.289	-1453.083	832.853	-107.054	-1455.265	833.237	-316.850
6	0.05000	-1441.847	1387.592	-19.698	-1366.480	1370.885	-176.988	-1440.890	1213.508	0.007	-1536.838	1091.763	39.705	-1477.330	953.418	56.694	-1511.541	854.965	98.477	-1472.201	1397.185	-405.253	-1361.724	1372.895	-243.668	-1577.929	1283.838	-266.367	-1390.545	1248.005	-407.562	-1398.364	1108.390	-478.941	-1271.741	1053.976	-457.795	-1203.092	962.460	-495.025	-1367.596	928.420	-74.286	-1470.603	1003.509	-46.721	-1555.070	939.886	-204.764	-1464.285	1004.564	-369.706	-1365.074	924.301	-351.433	-1281.002	733.910	-103.761	-1253.142	652.886	-116.687	-1351.976	601.903	-19.788	-1300.133	472.165	-62.278	-1193.530	367.854	-93.628	-1174.322	296.564	-101.853	-1294.953	333.932	-50.225	-1277.758	262.600	-59.836	-1168.137	96.909	-99.441	-1208.147	37.625	-169.124	-1034.857	80.109	-65.090	-1391.678	707.665	-362.961	-1410.163	627.914	-339.133	-1536.348	728.570	-403.787	-1553.207	645.766	-378.933	-1578.945	489.865	-348.089	-1596.292	355.515	-325.785	-1628.008	287.234	-318.840	-1732.247	331.617	-336.013	-1781.934	124.657	-292.516	-1850.852	90.296	-233.628	-1675.812	33.655	-317.705	-1439.892	832.145	-106.281	-1441.339	832.263	-316.084
7	0.06000	-1430.587	1386.686	-17.944	-1354.419	1370.403	-174.861	-1429.513	1212.527	1.485	-1525.848	1090.735	40.194	-1466.885	952.185	57.683	-1501.990	853.782	99.027	-1459.329	1396.711	-403.533	-1349.370	1372.535	-241.592	-1565.416	1283.045	-265.685	-1378.010	1247.262	-405.605	-1385.941	1107.856	-477.086	-1259.497	1053.744	-454.738	-1190.026	962.809	-491.706	-1354.299	928.667	-73.433	-1457.878	1002.917	-46.231	-1541.625	938.999	-204.582	-1450.389	1003.673	-369.192	-1351.162	923.282	-350.740	-1266.348	735.458	-103.373	-1237.911	654.700	-116.537	-1336.244	602.735	-19.519	-1284.252	472.777	-62.056	-1180.456	365.743	-94.377	-1162.974	293.977	-102.728	-1282.403	334.305	-50.177	-1267.125	262.499	-60.031	-1162.486	95.348	-100.304	-1205.027	38.294	-169.820	-1029.945	73.608	-66.994	-1378.504	706.639	-362.321	-1397.049	626.870	-338.618	-1523.106	727.704	-403.244	-1540.108	644.949	-378.435	-1566.564	489.330	-348.178	-1586.883	355.081	-326.204	-1620.270	287.548	-319.298	-1723.394	334.481	-336.322	-1778.192	128.534	-293.372	-1847.983	96.584	-234.145	-1675.004	33.783	-318.176	-1426.377	831.705	-105.459	-1427.166	831.440	-315.265
8	0.07000	-1419.348	1386.071	-16.084	-1342.328	1370.191	-172.631	-1418.130	1211.828	3.094	-1514.866	1089.936	40.688	-1456.188	951.273	58.671	-1491.994	852.866	99.552	-1446.438	1396.429	-401.735	-1336.982	1372.437	-239.403	-1552.829	1282.450	-264.903	-1365.481	1246.638	-403.636	-1373.750	1107.424	-475.209	-1247.547	1053.315	-451.722	-1177.496	962.784	-488.421	-1340.722	929.254	-72.657	-1444.718	1002.696	-45.783	-1527.936	938.392	-204.385	-1436.227	1002.937	-368.690	-1336.958	922.382	-350.090	-1251.607	736.892	-102.749	-1222.818	656.315	-116.077	-1320.951	603.729	-19.101	-1268.995	473.528	-61.536	-1167.854	363.987	-94.839	-1152.038	291.824	-103.277	-1270.125	334.905	-49.661	-1256.661	262.700	-59.653	-1157.234	94.059	-100.742	-1202.310	39.511	-170.207	-1025.631	67.108	-68.490	-1364.872	705.765	-361.688	-1383.348	625.946	-338.168	-1509.474	726.843	-402.597	-1526.467	644.067	-377.855	-1553.398	488.750	-348.324	-1576.811	354.642	-326.746	-1611.944	287.936	-319.832	-1713.844	337.544	-336.493	-1773.770	132.745	-294.153	-1844.424	103.644	-234.525	-1674.128	34.058	-318.677	-1412.568	831.585	-104.577	-1412.783	830.799	-314.383
9	0.08000	-1408.094	1385.753	-14.135	-1330.205	1370.269	-170.334	-1406.718	1211.421	4.814	-1503.859	1089.393	41.193	-1445.243	950.697	59.664	-1481.558	852.235	100.069	-1433.579	1396.346	-399.870	-1324.578	1372.616	-237.112	-1540.181	1282.087	-263.996	-1353.000	1246.161	-401.663	-1361.796	1107.125	-473.329	-1235.884	1052.707	-448.758	-1165.517	962.397	-485.209	-1326.923	930.193	-71.961	-1431.182	1002.919	-45.401	-1514.058	938.094	-204.174	-1421.822	1002.381	-368.198	-1322.509	921.638	-349.483	-1236.921	738.215	-101.882	-1208.003	657.726	-115.278	-1306.187	604.911	-18.450	-1254.424	474.431	-60.708	-1155.759	362.590	-95.029	-1141.560	290.093	-103.516	-1258.130	335.747	-48.627	-1246.391	263.206	-58.664	-1152.432	93.001	-100.778	-1199.898	41.080	-170.340	-1021.892	60.781	-69.536	-1350.756	705.070	-361.093	-1369.025	625.153	-337.824	-1495.436	725.993	-401.835	-1512.257	643.126	-377.218	-1539.411	488.125	-348.558	-1566.012	354.201	-327.433	-1602.949	288.412	-320.458	-1703.520	340.802	-336.537	-1768.554	137.329	-294.843	-1840.022	111.547	-234.732	-1673.164	34.554	-319.166	-1398.534	831.832	-103.633	-1398.241	830.370	-313.435
10	0.09000	-1396.790	1385.730	-12.125	-1318.050	1370.631	-168.007	-1395.249	1211.305	6.614	-1492.786	1089.117	41.722	-1434.053	950.459	60.660	-1470.689	851.891	100.592	-1420.788	1396.476	-397.961	-1312.168	1373.072	-234.746	-1527.481	1281.970	-262.964	-1340.609	1245.858	-399.706	-1350.075	1106.987	-471.456	-1224.509	1051.949	-445.865	-1154.100	961.677	-482.115	-1312.984	931.474	-71.334	-1417.373	1003.621	-45.105	-1500.053	938.114	-203.956	-1407.209	1002.023	-367.715	-1307.883	921.084	-348.905	-1222.435	739.464	-100.784	-1193.580	658.978	-114.145	-1291.968	606.299	-17.487	-1240.502	475.472	-59.597	-1144.205	361.485	-94.993	-1131.604	288.693	-103.498	-1246.449	336.807	-47.085	-1236.398	263.977	-57.113	-1148.144	92.138	-100.489	-1197.744	42.799	-170.287	-1018.717	54.818	-70.151	-1336.147	704.584	-360.558	-1354.061	624.495	-337.615	-1480.971	725.138	-400.962	-1497.454	642.117	-376.558	-1524.569	487.441	-348.923	-1554.426	353.761	-328.293	-1593.202	288.978	-321.198	-1692.337	344.235	-336.467	-1762.422	142.332	-295.426	-1834.605	120.344	-234.740	-1672.065	35.355	-319.594	-1384.366	832.467	-102.627	-1383.597	830.173	-312.421
